<svg xmlns="http://www.w3.org/2000/svg" width="600" height="260" viewBox="0 0 600 260" role="img" aria-labelledby="title">
  <title id="title">Automated living GitHub profile dashboard</title>
  <defs>
    <linearGradient id="bg" x1="0" y1="0" x2="1" y2="1"><stop stop-color="#050816"/><stop offset=".55" stop-color="#17113b"/><stop offset="1" stop-color="#083344"/></linearGradient>
    <linearGradient id="accent"><stop stop-color="#a78bfa"/><stop offset="1" stop-color="#22d3ee"/></linearGradient>
    <filter id="shadow"><feDropShadow dx="0" dy="12" stdDeviation="16" flood-opacity=".45"/></filter>
  </defs>
  <rect width="600" height="260" rx="24" fill="url(#bg)"/>
  <circle cx="80" cy="50" r="110" fill="#8b5cf6" opacity=".12"/>
  <circle cx="540" cy="224" r="130" fill="#22d3ee" opacity=".10"/>
  <g transform="translate(55 33)" filter="url(#shadow)">
    <rect width="490" height="190" rx="18" fill="#0d1117" stroke="#334155"/>
    <rect x="20" y="20" width="138" height="150" rx="12" fill="#111827" stroke="#263449"/>
    <circle cx="89" cy="68" r="28" fill="url(#accent)"/>
    <path d="M52 139C58 109 120 109 126 139" fill="#172554" stroke="#818cf8"/>
    <rect x="179" y="24" width="165" height="12" rx="6" fill="url(#accent)"/>
    <rect x="179" y="50" width="244" height="7" rx="3.5" fill="#334155"/>
    <rect x="179" y="66" width="205" height="7" rx="3.5" fill="#263449"/>
    <g transform="translate(179 92)">
      <rect width="96" height="63" rx="9" fill="#111827" stroke="#334155"/>
      <rect x="111" width="96" height="63" rx="9" fill="#111827" stroke="#334155"/>
      <rect x="222" width="69" height="63" rx="9" fill="#111827" stroke="#334155"/>
      <path d="M12 47L30 35L47 40L62 20L83 29" fill="none" stroke="#22d3ee" stroke-width="3"/>
      <rect x="125" y="34" width="9" height="17" rx="2" fill="#8b5cf6"/><rect x="140" y="23" width="9" height="28" rx="2" fill="#818cf8"/><rect x="155" y="12" width="9" height="39" rx="2" fill="#38bdf8"/><rect x="170" y="29" width="9" height="22" rx="2" fill="#22d3ee"/>
      <circle cx="256" cy="31" r="18" fill="none" stroke="#334155" stroke-width="7"/><path d="M256 13A18 18 0 0 1 273 37" fill="none" stroke="#a78bfa" stroke-width="7"/>
    </g>
    <circle cx="456" cy="28" r="5" fill="#34d399">
      <animate attributeName="opacity" values=".35;1;.35" dur="2s" repeatCount="indefinite"/>
    </circle>
  </g>
  <text x="300" y="245" fill="#cbd5e1" font-family="Inter,Arial,sans-serif" font-size="12" font-weight="700" text-anchor="middle">DESIGN · METRICS · AUTOMATION · OPEN SOURCE</text>
</svg>
